<svg xmlns="http://www.w3.org/2000/svg" width="651" height="38" viewBox="0 0 651 38" version="1.1"><path d="" stroke="none" fill="#F0F4FA" fill-rule="evenodd"/><path d="M 8.885 16.859 C 7.573 17.881, 5.038 19.467, 3.250 20.384 L 0 22.051 0 30.027 L 0 38.003 325.750 37.752 L 651.500 37.500 651.756 29.500 C 652.050 20.298, 651.287 18.241, 648.193 19.897 C 645.061 21.573, 643.077 21.242, 639.818 18.500 C 635.942 15.239, 633.613 15.346, 629 19 C 626.917 20.650, 624.943 22, 624.615 22 C 624.286 22, 621.950 20.422, 619.424 18.494 C 616.887 16.558, 614.308 15.301, 613.665 15.689 C 613.024 16.075, 610.756 17.644, 608.625 19.177 C 606.494 20.710, 604.244 21.659, 603.625 21.287 C 603.006 20.914, 600.764 19.361, 598.642 17.835 C 595.008 15.222, 594.617 15.147, 591.921 16.541 C 590.347 17.355, 588.580 18.916, 587.994 20.010 C 586.467 22.864, 584.383 22.483, 579.729 18.500 C 577.480 16.575, 575.159 15.010, 574.570 15.023 C 573.982 15.036, 571.789 16.588, 569.697 18.472 C 565.437 22.310, 564.523 22.242, 558.637 17.660 C 555.959 15.576, 554.364 14.936, 553.438 15.576 C 552.704 16.084, 550.297 17.787, 548.089 19.360 L 544.075 22.220 539.857 18.610 C 535.672 15.027, 533.593 14.232, 532.603 15.834 C 532.319 16.292, 530.285 17.917, 528.081 19.444 L 524.075 22.220 519.857 18.610 C 517.538 16.625, 515.127 15, 514.500 15 C 513.873 15, 511.520 16.575, 509.271 18.500 C 507.022 20.425, 504.804 21.990, 504.341 21.977 C 503.878 21.964, 501.763 20.389, 499.640 18.477 C 497.516 16.565, 495.235 15, 494.570 15 C 493.904 15, 491.520 16.575, 489.271 18.500 C 487.022 20.425, 484.879 22, 484.509 22 C 484.139 22, 481.915 20.425, 479.565 18.500 C 477.216 16.575, 474.859 15, 474.327 15 C 473.795 15, 471.520 16.575, 469.271 18.500 C 467.022 20.425, 464.879 22, 464.509 22 C 464.139 22, 461.915 20.425, 459.565 18.500 C 457.216 16.575, 454.641 15, 453.843 15 C 453.045 15, 450.866 16.575, 449 18.500 C 447.134 20.425, 445.209 22, 444.722 22 C 444.235 22, 441.915 20.425, 439.565 18.500 C 437.216 16.575, 434.641 15, 433.843 15 C 433.045 15, 430.866 16.575, 429 18.500 C 427.134 20.425, 425.209 22, 424.722 22 C 424.235 22, 421.915 20.425, 419.565 18.500 C 417.216 16.575, 414.684 15, 413.939 15 C 413.194 15, 410.866 16.678, 408.766 18.728 C 405.925 21.502, 404.584 22.206, 403.525 21.478 C 402.743 20.940, 400.285 19.205, 398.063 17.622 L 394.024 14.744 390.398 17.622 C 388.404 19.205, 386.213 20.907, 385.529 21.405 C 384.691 22.014, 382.731 21.123, 379.521 18.671 C 376.900 16.670, 374.248 15.326, 373.628 15.684 C 373.008 16.042, 370.618 17.665, 368.317 19.289 L 364.133 22.243 359.714 18.622 C 357.283 16.630, 354.999 15, 354.638 15 C 354.278 15, 352.119 16.350, 349.841 18 C 345.055 21.467, 342.792 21.739, 340.289 19.148 C 335.881 14.585, 332.204 14.802, 327.593 19.898 C 325.082 22.672, 324.078 22.559, 319.962 19.041 C 315.549 15.269, 313.827 15.282, 308.470 19.129 L 304.113 22.258 300.163 19.129 C 295.240 15.230, 293.458 15.218, 288.252 19.046 L 284.110 22.092 279.905 19.046 C 274.666 15.251, 273.336 15.250, 268.111 19.035 L 263.921 22.069 259.608 18.535 C 257.235 16.591, 254.843 15, 254.291 15 C 253.739 15, 251.225 16.575, 248.704 18.500 C 246.183 20.425, 243.884 22, 243.595 22 C 243.306 22, 241.591 20.726, 239.785 19.169 C 234.679 14.768, 233.545 14.703, 228.944 18.546 C 226.671 20.446, 224.562 22, 224.258 22 C 223.955 22, 221.784 20.425, 219.435 18.500 C 217.085 16.575, 214.740 15, 214.222 15 C 213.705 15, 211.306 16.571, 208.891 18.490 C 206.476 20.410, 204.026 21.985, 203.446 21.990 C 202.867 21.996, 200.866 20.425, 199 18.500 C 197.134 16.575, 194.984 15, 194.222 15 C 193.460 15, 190.915 16.575, 188.565 18.500 C 186.216 20.425, 183.890 22, 183.397 21.999 C 182.904 21.999, 180.731 20.424, 178.568 18.499 C 176.406 16.575, 174.232 15, 173.737 15 C 173.242 15, 170.915 16.575, 168.565 18.500 C 166.216 20.425, 163.890 22, 163.397 21.999 C 162.904 21.999, 160.731 20.424, 158.568 18.499 C 154.666 15.026, 152.592 14.233, 151.603 15.834 C 151.319 16.292, 149.285 17.917, 147.081 19.444 L 143.075 22.220 138.857 18.610 C 136.538 16.625, 134.244 15, 133.760 15 C 133.276 15, 130.817 16.575, 128.296 18.500 C 125.775 20.425, 123.302 22, 122.800 22 C 122.298 22, 120.634 20.627, 119.101 18.950 C 115.433 14.934, 113.317 14.930, 107.748 18.929 L 103.116 22.255 98.878 18.628 C 96.547 16.632, 94.127 15, 93.500 15 C 92.873 15, 90.449 16.636, 88.114 18.635 L 83.867 22.269 78.746 18.700 C 73.160 14.807, 72.428 14.862, 66.717 19.612 C 64.358 21.574, 63.557 21.755, 61.467 20.803 C 60.110 20.185, 59 19.313, 59 18.865 C 59 18.418, 57.725 17.392, 56.166 16.586 C 53.617 15.268, 53.038 15.299, 50.416 16.898 C 48.812 17.876, 46.882 19.424, 46.128 20.338 C 44.182 22.694, 41.306 22.397, 39.509 19.654 C 38.664 18.364, 36.900 16.820, 35.590 16.223 C 33.543 15.290, 32.499 15.634, 28.170 18.665 L 23.131 22.192 18.422 18.596 C 13.018 14.470, 12.152 14.312, 8.885 16.859 M 0.349 30 C 0.349 34.675, 0.522 36.587, 0.732 34.250 C 0.943 31.912, 0.943 28.087, 0.732 25.750 C 0.522 23.412, 0.349 25.325, 0.349 30" stroke="none" fill="#F0F4FA" fill-rule="evenodd"/></svg>