<svg xmlns="http://www.w3.org/2000/svg" width="651" height="40" viewBox="0 0 651 40" version="1.1"><path d="M 40.250 0.719 C 41.763 0.947, 43 1.553, 43 2.066 C 43 2.605, 49.731 3, 58.927 3 C 73.271 3, 74.894 3.174, 75.267 4.750 C 75.575 6.058, 75.874 5.805, 76.448 3.750 C 77.434 0.222, 80.548 0.065, 81.411 3.500 C 81.756 4.875, 82.501 6, 83.067 6 C 83.633 6, 85.138 4.875, 86.412 3.500 C 88.793 0.932, 91 0.217, 91 2.015 C 91 2.690, 111.309 3.020, 151.750 3 C 185.163 2.984, 213.963 2.977, 215.750 2.985 C 217.966 2.995, 219 3.477, 219 4.500 C 219 5.583, 220.111 6, 223 6 C 225.862 6, 227 5.580, 227 4.523 C 227 2.756, 243.767 2.339, 297.182 2.776 C 328.111 3.029, 330.897 3.192, 331.272 4.776 C 331.571 6.041, 331.885 5.767, 332.448 3.750 C 333.434 0.222, 336.548 0.065, 337.411 3.500 C 338.203 6.658, 339.485 6.658, 342.412 3.500 C 344.785 0.940, 347 0.216, 347 2 C 347 2.656, 369 3, 411 3 C 467.222 3, 475 3.182, 475 4.500 C 475 5.583, 476.111 6, 479 6 C 481.889 6, 483 5.583, 483 4.500 C 483 3.343, 484.313 2.996, 488.750 2.982 C 491.913 2.972, 517 3.025, 544.500 3.098 C 572 3.172, 595.400 3.204, 596.500 3.170 C 597.600 3.135, 603.113 3.045, 608.750 2.969 C 616.866 2.859, 619 2.535, 619 1.412 C 619 0.191, 578.641 0.016, 328.250 0.150 C 168.337 0.236, 38.737 0.492, 40.250 0.719 M 595 7.531 C 595 8.339, 595.675 9, 596.500 9 C 597.325 9, 598 8.598, 598 8.107 C 598 7.616, 597.325 6.955, 596.500 6.638 C 595.586 6.288, 595 6.637, 595 7.531 M 74.459 17.067 C 74.096 17.653, 74.005 18.339, 74.257 18.590 C 74.954 19.288, 78 17.907, 78 16.893 C 78 15.641, 75.257 15.776, 74.459 17.067 M 131.535 16.943 C 131.141 17.581, 131.897 18, 133.441 18 C 134.848 18, 136 18.450, 136 19 C 136 19.550, 135.550 20, 135 20 C 133.557 20, 133.769 21.697, 135.285 22.279 C 136.167 22.618, 136.559 21.789, 136.535 19.636 C 136.508 17.200, 136.019 16.431, 134.344 16.193 C 133.159 16.024, 131.895 16.361, 131.535 16.943 M 458.093 16.943 C 457.327 17.416, 457.075 18.313, 457.510 19.017 C 458.084 19.945, 458.517 19.828, 459.230 18.553 C 460.387 16.486, 459.914 15.817, 458.093 16.943 M 478 17 C 478 17.550, 478.900 18, 480 18 C 481.100 18, 482 17.550, 482 17 C 482 16.450, 481.100 16, 480 16 C 478.900 16, 478 16.450, 478 17 M 530 17 C 530 17.550, 530.513 18, 531.140 18 C 531.767 18, 532.855 18.787, 533.558 19.748 C 534.261 20.710, 535.204 21.129, 535.653 20.680 C 536.103 20.231, 535.352 19.004, 533.985 17.954 C 531.195 15.810, 530 15.524, 530 17 M 616 16.893 C 616 17.997, 618.595 19.072, 619.375 18.292 C 619.689 17.978, 619.706 17.334, 619.414 16.861 C 618.712 15.725, 616 15.750, 616 16.893 M 77.494 20.006 C 76.496 21.110, 75.933 22.267, 76.244 22.578 C 76.895 23.228, 81 19.948, 81 18.778 C 81 17.380, 79.347 17.959, 77.494 20.006 M 237.229 19.961 C 235.788 21.162, 235.354 22.101, 236.042 22.526 C 237.155 23.214, 241 20.359, 241 18.845 C 241 17.518, 239.695 17.904, 237.229 19.961 M 374.500 19 C 374.160 19.550, 374.190 20.498, 374.566 21.107 C 375.238 22.194, 376.948 20.528, 376.985 18.750 C 377.007 17.654, 375.221 17.834, 374.500 19 M 453 18.845 C 453 20.046, 456.433 23, 457.829 23 C 459.592 23, 459.249 22.028, 456.750 19.944 C 454.303 17.902, 453 17.521, 453 18.845 M 613 18.943 C 613 20.088, 617.188 23.145, 617.850 22.483 C 618.448 21.886, 614.976 18, 613.845 18 C 613.380 18, 613 18.424, 613 18.943" stroke="none" fill="#F0F4FA" fill-rule="evenodd"/><path d="M 0 11.028 L 0 22.230 2.465 20.615 C 5.935 18.342, 7.450 18.578, 11.347 22 C 13.226 23.650, 15.491 25, 16.379 25 C 17.267 25, 19.770 23.396, 21.941 21.435 C 26.292 17.503, 27.441 17.615, 31.924 22.408 C 35.141 25.847, 36.844 25.682, 41.789 21.448 C 46.355 17.540, 47.470 17.646, 51.924 22.408 C 55.170 25.878, 57.245 25.677, 61.941 21.435 C 66.292 17.503, 67.441 17.615, 71.924 22.408 C 75.160 25.867, 77.245 25.677, 81.868 21.500 C 83.999 19.575, 85.998 18, 86.310 18 C 86.623 18, 88.965 19.806, 91.516 22.014 L 96.153 26.027 98.827 24.122 C 100.297 23.073, 102.357 21.267, 103.405 20.108 C 104.453 18.949, 105.663 18, 106.094 18 C 106.525 18, 108.965 19.806, 111.516 22.014 L 116.153 26.027 118.827 24.122 C 120.297 23.073, 122.357 21.267, 123.405 20.108 C 124.453 18.949, 125.700 18, 126.177 18 C 126.654 18, 129.031 19.831, 131.459 22.069 C 136.392 26.616, 137.247 26.540, 142.437 21.086 C 144.052 19.389, 145.713 18, 146.126 18 C 146.540 18, 148.980 19.819, 151.550 22.043 L 156.221 26.086 159.360 23.526 C 167.194 17.140, 166.624 17.215, 171.443 21.944 C 176.288 26.699, 177.160 26.631, 182.437 21.086 C 184.052 19.389, 185.881 18, 186.500 18 C 187.119 18, 188.948 19.389, 190.563 21.086 C 195.606 26.385, 196.361 26.448, 201.498 22.002 C 204.041 19.801, 206.460 18, 206.874 18 C 207.287 18, 208.948 19.389, 210.563 21.086 C 215.606 26.385, 216.361 26.448, 221.498 22.002 C 224.041 19.801, 226.460 18, 226.874 18 C 227.287 18, 228.948 19.389, 230.563 21.086 C 235.606 26.385, 236.361 26.448, 241.498 22.002 C 244.041 19.801, 246.460 18, 246.874 18 C 247.287 18, 248.948 19.389, 250.563 21.086 C 255.606 26.385, 256.361 26.448, 261.498 22.002 C 264.041 19.801, 266.456 18, 266.865 18 C 267.273 18, 269.134 19.575, 271 21.500 C 275.039 25.668, 277.795 25.916, 281.076 22.408 C 285.559 17.615, 286.708 17.503, 291.059 21.435 C 295.755 25.677, 297.830 25.878, 301.076 22.408 C 305.666 17.500, 306.687 17.457, 311.573 21.961 C 316.366 26.379, 317.533 26.383, 321.500 22 C 325.437 17.650, 326.782 17.570, 331.059 21.435 C 335.323 25.286, 338.015 25.892, 340.039 23.453 C 340.745 22.603, 342.613 20.987, 344.191 19.864 L 347.060 17.821 351.033 21.411 C 353.218 23.385, 355.720 25, 356.594 25 C 357.467 25, 360.022 23.425, 362.271 21.500 C 364.520 19.575, 366.728 18, 367.178 18 C 367.627 18, 369.665 19.575, 371.706 21.500 C 373.747 23.425, 376.064 25, 376.855 25 C 377.647 25, 380.242 23.404, 382.624 21.452 C 387.382 17.553, 388.478 17.655, 392.924 22.408 C 396.141 25.847, 397.844 25.682, 402.789 21.448 C 407.355 17.540, 408.470 17.646, 412.924 22.408 C 416.141 25.847, 417.844 25.682, 422.789 21.448 C 427.355 17.540, 428.470 17.646, 432.924 22.408 C 436.108 25.812, 437.459 25.684, 442.565 21.500 C 444.915 19.575, 447.235 18, 447.722 18 C 448.209 18, 450.134 19.575, 452 21.500 C 453.866 23.425, 456.203 25, 457.193 25 C 458.184 25, 460.738 23.425, 462.868 21.500 C 464.999 19.575, 467.088 18, 467.509 18 C 467.931 18, 470.252 19.821, 472.667 22.047 L 477.058 26.095 479.779 24.155 C 481.276 23.089, 483.357 21.267, 484.405 20.108 C 485.453 18.949, 486.752 18, 487.293 18 C 487.834 18, 490.252 19.821, 492.667 22.047 L 497.058 26.095 499.779 24.155 C 501.276 23.089, 503.357 21.267, 504.405 20.108 C 506.955 17.286, 508.094 17.442, 511.563 21.086 C 516.670 26.452, 517.478 26.523, 522.352 22.030 C 524.756 19.813, 527.152 18, 527.675 18 C 528.198 18, 529.948 19.389, 531.563 21.086 C 536.606 26.385, 537.361 26.448, 542.498 22.002 C 545.041 19.801, 547.460 18, 547.874 18 C 548.287 18, 549.948 19.389, 551.563 21.086 C 556.670 26.452, 557.478 26.523, 562.352 22.030 C 564.756 19.813, 567.152 18, 567.675 18 C 568.198 18, 569.948 19.389, 571.563 21.086 C 576.606 26.385, 577.361 26.448, 582.498 22.002 C 585.041 19.801, 587.460 18, 587.874 18 C 588.287 18, 589.948 19.389, 591.563 21.086 C 596.670 26.452, 597.478 26.523, 602.352 22.030 C 604.756 19.813, 607.069 18, 607.491 18 C 607.912 18, 610.001 19.575, 612.132 21.500 C 616.755 25.677, 618.840 25.867, 622.076 22.408 C 626.633 17.536, 627.618 17.494, 632.931 21.942 C 635.597 24.174, 638.199 26, 638.714 26 C 639.230 26, 640.674 24.911, 641.924 23.580 C 645.237 20.055, 649.923 18.268, 651.077 20.090 C 651.633 20.968, 651.975 17.444, 651.985 10.750 L 652 0 635.500 0 C 621.940 0, 619 0.252, 619 1.415 C 619 2.534, 616.856 2.859, 608.750 2.969 C 603.112 3.045, 597.600 3.135, 596.500 3.170 C 595.400 3.204, 572 3.172, 544.500 3.098 C 517 3.025, 491.913 2.972, 488.750 2.982 C 484.313 2.996, 483 3.343, 483 4.500 C 483 5.583, 481.889 6, 479 6 C 476.111 6, 475 5.583, 475 4.500 C 475 3.182, 467.222 3, 411 3 C 369 3, 347 2.656, 347 2 C 347 0.216, 344.785 0.940, 342.412 3.500 C 339.485 6.658, 338.203 6.658, 337.411 3.500 C 336.548 0.065, 333.434 0.222, 332.448 3.750 C 331.885 5.767, 331.571 6.041, 331.272 4.776 C 330.897 3.192, 328.111 3.029, 297.182 2.776 C 243.767 2.339, 227 2.756, 227 4.523 C 227 5.580, 225.862 6, 223 6 C 220.111 6, 219 5.583, 219 4.500 C 219 3.477, 217.966 2.995, 215.750 2.985 C 213.963 2.977, 185.163 2.984, 151.750 3 C 111.309 3.020, 91 2.690, 91 2.015 C 91 0.217, 88.793 0.932, 86.412 3.500 C 83.485 6.658, 82.203 6.658, 81.411 3.500 C 80.548 0.065, 77.434 0.222, 76.448 3.750 C 75.874 5.805, 75.575 6.058, 75.267 4.750 C 74.895 3.174, 73.275 3, 59.010 3 C 47.224 3, 43.060 2.680, 42.751 1.750 C 42.440 0.817, 36.967 0.414, 21.167 0.163 L 0 -0.175 0 11.028 M 0.374 11.500 C 0.376 17.550, 0.541 19.896, 0.740 16.713 C 0.939 13.531, 0.937 8.581, 0.736 5.713 C 0.535 2.846, 0.372 5.450, 0.374 11.500 M 595 7.531 C 595 8.339, 595.675 9, 596.500 9 C 597.325 9, 598 8.598, 598 8.107 C 598 7.616, 597.325 6.955, 596.500 6.638 C 595.586 6.288, 595 6.637, 595 7.531 M 74.459 17.067 C 74.096 17.653, 74.005 18.339, 74.257 18.590 C 74.954 19.288, 78 17.907, 78 16.893 C 78 15.641, 75.257 15.776, 74.459 17.067 M 131.535 16.943 C 131.141 17.581, 131.897 18, 133.441 18 C 134.848 18, 136 18.450, 136 19 C 136 19.550, 135.550 20, 135 20 C 133.557 20, 133.769 21.697, 135.285 22.279 C 136.167 22.618, 136.559 21.789, 136.535 19.636 C 136.508 17.200, 136.019 16.431, 134.344 16.193 C 133.159 16.024, 131.895 16.361, 131.535 16.943 M 458.093 16.943 C 457.327 17.416, 457.075 18.313, 457.510 19.017 C 458.084 19.945, 458.517 19.828, 459.230 18.553 C 460.387 16.486, 459.914 15.817, 458.093 16.943 M 478 17 C 478 17.550, 478.900 18, 480 18 C 481.100 18, 482 17.550, 482 17 C 482 16.450, 481.100 16, 480 16 C 478.900 16, 478 16.450, 478 17 M 530 17 C 530 17.550, 530.513 18, 531.140 18 C 531.767 18, 532.855 18.787, 533.558 19.748 C 534.261 20.710, 535.204 21.129, 535.653 20.680 C 536.103 20.231, 535.352 19.004, 533.985 17.954 C 531.195 15.810, 530 15.524, 530 17 M 616 16.893 C 616 17.997, 618.595 19.072, 619.375 18.292 C 619.689 17.978, 619.706 17.334, 619.414 16.861 C 618.712 15.725, 616 15.750, 616 16.893 M 77.494 20.006 C 76.496 21.110, 75.933 22.267, 76.244 22.578 C 76.895 23.228, 81 19.948, 81 18.778 C 81 17.380, 79.347 17.959, 77.494 20.006 M 237.229 19.961 C 235.788 21.162, 235.354 22.101, 236.042 22.526 C 237.155 23.214, 241 20.359, 241 18.845 C 241 17.518, 239.695 17.904, 237.229 19.961 M 374.500 19 C 374.160 19.550, 374.190 20.498, 374.566 21.107 C 375.238 22.194, 376.948 20.528, 376.985 18.750 C 377.007 17.654, 375.221 17.834, 374.500 19 M 453 18.845 C 453 20.046, 456.433 23, 457.829 23 C 459.592 23, 459.249 22.028, 456.750 19.944 C 454.303 17.902, 453 17.521, 453 18.845 M 613 18.943 C 613 20.088, 617.188 23.145, 617.850 22.483 C 618.448 21.886, 614.976 18, 613.845 18 C 613.380 18, 613 18.424, 613 18.943" stroke="none" fill="#F0F4FA" fill-rule="evenodd"/></svg>